<svg width="1037" xmlns="http://www.w3.org/2000/svg" xmlns:xlink="http://www.w3.org/1999/xlink" height="779" viewBox="0 0 1037 779"><defs/><g id="group1" transform="translate(1.500000,1.500000)"><g id="shape2" transform="translate(614.500000,344.000000)"><path d="M.0,.0L120.0,.0L120.0,70.0L.0,70.0L.0,.0z" fill-rule="nonzero" stroke-width="3" fill="#ffffff" stroke="#323232"/><text xml:space="preserve" style="fill:#191919;font-family:JetBrains Mono ExtraBold;font-size:12.00pt"><tspan x="40.0" y="40.5">item</tspan></text></g><g id="shape3" transform="translate(192.000000,113.000000)"><path d="M.0,.0L120.0,.0L120.0,70.0L.0,70.0L.0,.0z" fill-rule="nonzero" stroke-width="3" fill="#ffffff" stroke="#323232"/><text xml:space="preserve" style="fill:#191919;font-family:JetBrains Mono ExtraBold;font-size:12.00pt"><tspan x="40.0" y="40.5">User</tspan></text></g><g id="shape4" transform="translate(614.500000,635.000000)"><path d="M.0,.0L120.0,.0L120.0,70.0L.0,70.0L.0,.0z" fill-rule="nonzero" stroke-width="3" fill="#ffffff" stroke="#323232"/><text xml:space="preserve" style="fill:#191919;font-family:JetBrains Mono ExtraBold;font-size:12.00pt"><tspan x="20.0" y="40.5">Category</tspan></text></g><g id="shape5" transform="translate(192.000000,344.000000)"><path d="M.0,.0L120.0,.0L120.0,70.0L.0,70.0L.0,.0z" fill-rule="nonzero" stroke-width="3" fill="#ffffff" stroke="#323232"/><text xml:space="preserve" style="fill:#191919;font-family:JetBrains Mono ExtraBold;font-size:12.00pt"><tspan x="35.0" y="40.5">Order</tspan></text></g><g id="shape6" transform="translate(759.000000,321.750000)"><path d="M.0,28.0C.0,12.5,21.5,.0,48.0,.0C74.5,.0,96.0,12.5,96.0,28.0C96.0,43.5,74.5,56.0,48.0,56.0C21.5,56.0,.0,43.5,.0,28.0z" fill-rule="nonzero" stroke-width="3" fill="#ffffff" stroke="#323232"/><text xml:space="preserve" style="fill:#191919;font-family:JetBrains Mono ExtraBold;font-size:12.00pt"><tspan x="13.0" style="text-decoration:underline" y="33.5">item-id</tspan></text></g><g id="shape7" transform="translate(777.000000,377.250000)"><path d="M.0,28.0C.0,12.5,21.5,.0,48.0,.0C74.5,.0,96.0,12.5,96.0,28.0C96.0,43.5,74.5,56.0,48.0,56.0C21.5,56.0,.0,43.5,.0,28.0z" fill-rule="nonzero" stroke-width="3" fill="#ffffff" stroke="#323232"/><text xml:space="preserve" style="fill:#191919;font-family:JetBrains Mono ExtraBold;font-size:12.00pt"><tspan x="23.0" y="33.5">title</tspan></text></g><g id="shape8" transform="translate(759.000000,435.750000)"><path d="M.0,28.0C.0,12.5,21.5,.0,48.0,.0C74.5,.0,96.0,12.5,96.0,28.0C96.0,43.5,74.5,56.0,48.0,56.0C21.5,56.0,.0,43.5,.0,28.0z" fill-rule="nonzero" stroke-width="3" fill="#ffffff" stroke="#323232"/><text xml:space="preserve" style="fill:#191919;font-family:JetBrains Mono ExtraBold;font-size:12.00pt"><tspan x="8.0" y="23.0">descript</tspan><tspan x="33.0" y="44.0">ion</tspan></text></g><g id="shape9" transform="translate(853.500000,418.250000)"><path d="M.0,28.0C.0,12.5,21.5,.0,48.0,.0C74.5,.0,96.0,12.5,96.0,28.0C96.0,43.5,74.5,56.0,48.0,56.0C21.5,56.0,.0,43.5,.0,28.0z" fill-rule="nonzero" stroke-width="3" fill="#ffffff" stroke="#323232"/><text xml:space="preserve" style="fill:#191919;font-family:JetBrains Mono ExtraBold;font-size:12.00pt"><tspan x="23.0" y="33.5">price</tspan></text></g><g id="shape10" transform="translate(853.500000,342.250000)"><path d="M.0,28.0C.0,12.5,21.5,.0,48.0,.0C74.5,.0,96.0,12.5,96.0,28.0C96.0,43.5,74.5,56.0,48.0,56.0C21.5,56.0,.0,43.5,.0,28.0z" fill-rule="nonzero" stroke-width="3" fill="#ffffff" stroke="#323232"/><text xml:space="preserve" style="fill:#191919;font-family:JetBrains Mono ExtraBold;font-size:12.00pt"><tspan x="18.0" y="23.0">avail-</tspan><tspan x="23.0" y="44.0">stock</tspan></text></g><g id="group11" transform="translate(938.000000,377.250000)"><path d="M.0,28.0C.0,12.5,21.5,.0,48.0,.0C74.5,.0,96.0,12.5,96.0,28.0C96.0,43.5,74.5,56.0,48.0,56.0C21.5,56.0,.0,43.5,.0,28.0z" fill-rule="nonzero" id="shape12" stroke-width="3" fill="#ffffff" stroke="#323232"/><path d="M.0,23.0C.0,10.3,19.3,.0,43.0,.0C66.7,.0,86.0,10.3,86.0,23.0C86.0,35.7,66.7,46.0,43.0,46.0C19.3,46.0,.0,35.7,.0,23.0z" fill-rule="nonzero" id="shape13" transform="translate(5.000000,5.000000)" stroke-width="3" fill="#ffffff" stroke="#323232"/><text xml:space="preserve" style="fill:#191919;font-family:JetBrains Mono ExtraBold;font-size:12.00pt"><tspan x="8.0" y="33.5">pictures</tspan></text></g><g id="shape14" transform="translate(192.000000,229.000000)"><path d="M.0,35.0L60.0,.0L120.0,35.0L60.0,70.0L.0,35.0z" fill-rule="nonzero" stroke-width="3" fill="#ffffff" stroke="#323232"/><text xml:space="preserve" style="fill:#191919;font-family:JetBrains Mono ExtraBold;font-size:12.00pt"><tspan x="35.0" y="40.5">makes</tspan></text></g><g id="shape15" transform="translate(252.000000,183.000000)"><path d="M.0,.0L.0,34.6" stroke-width="3" stroke="#303030" fill="none"/><path d="M5.2,34.6L.0,45.0L-5.2,34.6L5.2,34.6" stroke-linecap="round" stroke-width="1" fill="#303030" stroke="#303030"/></g><g id="shape16" transform="translate(252.000000,299.000000)"><path d="M.0,.0L.0,35.6" stroke-width="3" stroke="#303030" fill="none"/><path d="M5.2,35.6L.0,46.0L-5.2,35.6L5.2,35.6" stroke-linecap="round" stroke-width="1" fill="#303030" stroke="#303030"/></g><g id="shape17" transform="translate(407.000000,344.000000)"><path d="M.0,35.0L60.0,.0L120.0,35.0L60.0,70.0L.0,35.0z" fill-rule="nonzero" stroke-width="3" fill="#ffffff" stroke="#323232"/><text xml:space="preserve" style="fill:#191919;font-family:JetBrains Mono ExtraBold;font-size:12.00pt"><tspan x="25.0" y="40.5">details</tspan></text></g><g id="shape18" transform="translate(614.500000,492.500000)"><path d="M.0,35.0L60.0,.0L120.0,35.0L60.0,70.0L.0,35.0z" fill-rule="nonzero" stroke-width="3" fill="#ffffff" stroke="#323232"/><text xml:space="preserve" style="fill:#191919;font-family:JetBrains Mono ExtraBold;font-size:12.00pt"><tspan x="45.0" y="40.5">has</tspan></text></g><g id="shape19" transform="translate(312.000000,379.000000)"><path d="M.0,.0L84.6,.0" stroke-width="3" stroke="#303030" fill="none"/><path d="M84.6,-5.2L95.0,.0L84.6,5.2L84.6,-5.2" stroke-linecap="round" stroke-width="1" fill="#303030" stroke="#303030"/></g><g id="shape20" transform="translate(527.000000,379.000000)"><path d="M.0,.0L76.6,.0" stroke-width="3" stroke="#303030" fill="none"/><path d="M76.6,-5.2L87.0,.0L76.6,5.2L76.6,-5.2" stroke-linecap="round" stroke-width="1" fill="#303030" stroke="#303030"/></g><g id="shape21" transform="translate(536.000000,344.000000)"><text xml:space="preserve" style="fill:#191919;font-family:JetBrains Mono ExtraBold;font-size:12.00pt"><tspan x="55.0" y="24.0">M</tspan></text></g><g id="shape22" transform="translate(287.000000,344.000000)"><text xml:space="preserve" style="fill:#191919;font-family:JetBrains Mono ExtraBold;font-size:12.00pt"><tspan x="55.0" y="24.0">N</tspan></text></g><g id="shape23" transform="translate(211.000000,311.500000)"><text xml:space="preserve" style="fill:#191919;font-family:JetBrains Mono ExtraBold;font-size:12.00pt"><tspan x="55.0" y="23.0">M</tspan></text></g><g id="shape24" transform="translate(211.000000,179.500000)"><text xml:space="preserve" style="fill:#191919;font-family:JetBrains Mono ExtraBold;font-size:12.00pt"><tspan x="55.0" y="24.0">1</tspan></text></g><g id="shape25" transform="translate(597.000000,416.500000)"><text xml:space="preserve" style="fill:#191919;font-family:JetBrains Mono ExtraBold;font-size:12.00pt"><tspan x="55.0" y="23.0">M</tspan></text></g><g id="shape26" transform="translate(597.000000,600.000000)"><text xml:space="preserve" style="fill:#191919;font-family:JetBrains Mono ExtraBold;font-size:12.00pt"><tspan x="55.0" y="23.0">1</tspan></text></g><g id="shape27" transform="translate(616.000000,113.000000)"><path d="M.0,35.0L60.0,.0L120.0,35.0L60.0,70.0L.0,35.0z" fill-rule="nonzero" stroke-width="3" fill="#ffffff" stroke="#323232"/><text xml:space="preserve" style="fill:#191919;font-family:JetBrains Mono ExtraBold;font-size:12.00pt"><tspan x="40.0" y="40.5">cart</tspan></text></g><g id="shape28" transform="translate(674.500000,414.000000)"><path d="M.0,.0L.0,67.6" stroke-width="3" stroke="#303030" fill="none"/><path d="M5.2,67.6L.0,78.0L-5.2,67.6L5.2,67.6" stroke-linecap="round" stroke-width="1" fill="#303030" stroke="#303030"/></g><g id="shape29" transform="translate(674.500000,562.500000)"><path d="M.0,.0L.0,62.6" stroke-width="3" stroke="#303030" fill="none"/><path d="M5.2,62.6L.0,73.0L-5.2,62.6L5.2,62.6" stroke-linecap="round" stroke-width="1" fill="#303030" stroke="#303030"/></g><g id="shape30" transform="translate(312.000000,148.000000)"><path d="M.0,.0L293.6,.0" stroke-width="3" stroke="#303030" fill="none"/><path d="M293.6,-5.2L304.0,.0L293.6,5.2L293.6,-5.2" stroke-linecap="round" stroke-width="1" fill="#303030" stroke="#303030"/></g><g id="shape31" transform="translate(676.000000,183.000000)"><path d="M.0,.0L.0,150.0L-2.0,150.0" stroke-width="3" stroke="#303030" fill="none"/><path d="M3.2,150.6L-2.0,161.0L-7.2,150.6L3.2,150.6" stroke-linecap="round" stroke-width="1" fill="#303030" stroke="#303030"/></g><g id="shape32" transform="translate(597.000000,311.500000)"><text xml:space="preserve" style="fill:#191919;font-family:JetBrains Mono ExtraBold;font-size:12.00pt"><tspan x="55.0" y="23.0">M</tspan></text></g><g id="shape33" transform="translate(287.000000,113.000000)"><text xml:space="preserve" style="fill:#191919;font-family:JetBrains Mono ExtraBold;font-size:12.00pt"><tspan x="55.0" y="23.0">N</tspan></text></g><g id="shape34" transform="translate(710.500000,38.500000)"><path d="M.0,28.0C.0,12.5,21.5,.0,48.0,.0C74.5,.0,96.0,12.5,96.0,28.0C96.0,43.5,74.5,56.0,48.0,56.0C21.5,56.0,.0,43.5,.0,28.0z" fill-rule="nonzero" stroke-width="3" fill="#ffffff" stroke="#323232"/><text xml:space="preserve" style="fill:#191919;font-family:JetBrains Mono ExtraBold;font-size:12.00pt"><tspan x="8.0" y="33.5">quantity</tspan></text></g><g id="shape35" transform="translate(94.000000,56.000000)"><path d="M.0,28.0C.0,12.5,21.5,.0,48.0,.0C74.5,.0,96.0,12.5,96.0,28.0C96.0,43.5,74.5,56.0,48.0,56.0C21.5,56.0,.0,43.5,.0,28.0z" fill-rule="nonzero" stroke-width="3" fill="#ffffff" stroke="#323232"/><text xml:space="preserve" style="fill:#191919;font-family:JetBrains Mono ExtraBold;font-size:12.00pt"><tspan x="13.0" style="text-decoration:underline" y="33.5">user-id</tspan></text></g><g id="shape36" transform="translate(759.000000,266.250000)"><path d="M.0,28.0C.0,12.5,21.5,.0,48.0,.0C74.5,.0,96.0,12.5,96.0,28.0C96.0,43.5,74.5,56.0,48.0,56.0C21.5,56.0,.0,43.5,.0,28.0z" fill-rule="nonzero" stroke-width="3" fill="#ffffff" stroke="#323232"/><text xml:space="preserve" style="fill:#191919;font-family:JetBrains Mono ExtraBold;font-size:12.00pt"><tspan x="18.0" style="text-decoration:underline" y="33.5">cat-id</tspan></text></g><g id="shape37" transform="translate(579.000000,720.000000)"><path d="M.0,28.0C.0,12.5,21.5,.0,48.0,.0C74.5,.0,96.0,12.5,96.0,28.0C96.0,43.5,74.5,56.0,48.0,56.0C21.5,56.0,.0,43.5,.0,28.0z" fill-rule="nonzero" stroke-width="3" fill="#ffffff" stroke="#323232"/><text xml:space="preserve" style="fill:#191919;font-family:JetBrains Mono ExtraBold;font-size:12.00pt"><tspan x="18.0" style="text-decoration:underline" y="33.5">cat-id</tspan></text></g><g id="shape38" transform="translate(674.000000,720.000000)"><path d="M.0,28.0C.0,12.5,21.5,.0,48.0,.0C74.5,.0,96.0,12.5,96.0,28.0C96.0,43.5,74.5,56.0,48.0,56.0C21.5,56.0,.0,43.5,.0,28.0z" fill-rule="nonzero" stroke-width="3" fill="#ffffff" stroke="#323232"/><text xml:space="preserve" style="fill:#191919;font-family:JetBrains Mono ExtraBold;font-size:12.00pt"><tspan x="8.0" y="33.5">cat-name</tspan></text></g><g id="shape39" transform="translate(66.000000,170.000000)"><path d="M.0,28.0C.0,12.5,21.5,.0,48.0,.0C74.5,.0,96.0,12.5,96.0,28.0C96.0,43.5,74.5,56.0,48.0,56.0C21.5,56.0,.0,43.5,.0,28.0z" fill-rule="nonzero" stroke-width="3" fill="#ffffff" stroke="#323232"/><text xml:space="preserve" style="fill:#191919;font-family:JetBrains Mono ExtraBold;font-size:12.00pt"><tspan x="23.0" y="23.0">full-</tspan><tspan x="28.0" y="44.0">name</tspan></text></g><g id="shape40" transform="translate(161.000000,19.000000)"><path d="M.0,28.0C.0,12.5,21.5,.0,48.0,.0C74.5,.0,96.0,12.5,96.0,28.0C96.0,43.5,74.5,56.0,48.0,56.0C21.5,56.0,.0,43.5,.0,28.0z" fill-rule="nonzero" stroke-width="3" fill="#ffffff" stroke="#323232"/><text xml:space="preserve" style="fill:#191919;font-family:JetBrains Mono ExtraBold;font-size:12.00pt"><tspan x="23.0" y="33.5">email</tspan></text></g><g id="shape41" transform="translate(255.000000,19.000000)"><path d="M.0,28.0C.0,12.5,21.5,.0,48.0,.0C74.5,.0,96.0,12.5,96.0,28.0C96.0,43.5,74.5,56.0,48.0,56.0C21.5,56.0,.0,43.5,.0,28.0z" fill-rule="nonzero" stroke-width="3" fill="#ffffff" stroke="#323232"/><text xml:space="preserve" style="fill:#191919;font-family:JetBrains Mono ExtraBold;font-size:12.00pt"><tspan x="8.0" y="33.5">password</tspan></text></g><g id="shape42" transform="translate(66.000000,113.000000)"><path d="M.0,28.0C.0,12.5,21.5,.0,48.0,.0C74.5,.0,96.0,12.5,96.0,28.0C96.0,43.5,74.5,56.0,48.0,56.0C21.5,56.0,.0,43.5,.0,28.0z" fill-rule="nonzero" stroke-width="3" fill="#ffffff" stroke="#323232"/><text xml:space="preserve" style="fill:#191919;font-family:JetBrains Mono ExtraBold;font-size:12.00pt"><tspan x="13.0" y="33.5">ac-type</tspan></text></g><g id="shape43" transform="translate(0.000000,75.000000)"><path d="M.0,28.0C.0,12.5,21.5,.0,48.0,.0C74.5,.0,96.0,12.5,96.0,28.0C96.0,43.5,74.5,56.0,48.0,56.0C21.5,56.0,.0,43.5,.0,28.0z" fill-rule="nonzero" stroke-width="3" fill="#ffffff" stroke="#323232"/><text xml:space="preserve" style="fill:#191919;font-family:JetBrains Mono ExtraBold;font-size:12.00pt"><tspan x="33.0" y="23.0">tp-</tspan><tspan x="18.0" y="44.0">number</tspan></text></g><g id="shape44" transform="translate(66.000000,0.000000)"><path d="M.0,28.0C.0,12.5,21.5,.0,48.0,.0C74.5,.0,96.0,12.5,96.0,28.0C96.0,43.5,74.5,56.0,48.0,56.0C21.5,56.0,.0,43.5,.0,28.0z" fill-rule="nonzero" stroke-width="3" fill="#ffffff" stroke="#323232"/><text xml:space="preserve" style="fill:#191919;font-family:JetBrains Mono ExtraBold;font-size:12.00pt"><tspan x="13.0" y="33.5">address</tspan></text></g><g id="shape45" transform="translate(371.000000,430.000000)"><path d="M.0,28.0C.0,12.5,21.5,.0,48.0,.0C74.5,.0,96.0,12.5,96.0,28.0C96.0,43.5,74.5,56.0,48.0,56.0C21.5,56.0,.0,43.5,.0,28.0z" fill-rule="nonzero" stroke-width="3" fill="#ffffff" stroke="#323232"/><text xml:space="preserve" style="fill:#191919;font-family:JetBrains Mono ExtraBold;font-size:12.00pt"><tspan x="13.0" style="text-decoration:underline" y="33.5">item-id</tspan></text></g><g id="shape46" transform="translate(416.000000,482.000000)"><path d="M.0,28.0C.0,12.5,21.5,.0,48.0,.0C74.5,.0,96.0,12.5,96.0,28.0C96.0,43.5,74.5,56.0,48.0,56.0C21.5,56.0,.0,43.5,.0,28.0z" fill-rule="nonzero" stroke-width="3" fill="#ffffff" stroke="#323232"/><text xml:space="preserve" style="fill:#191919;font-family:JetBrains Mono ExtraBold;font-size:12.00pt"><tspan x="8.0" y="33.5">quantity</tspan></text></g><g id="shape47" transform="translate(75.000000,406.000000)"><path d="M.0,28.0C.0,12.5,21.5,.0,48.0,.0C74.5,.0,96.0,12.5,96.0,28.0C96.0,43.5,74.5,56.0,48.0,56.0C21.5,56.0,.0,43.5,.0,28.0z" fill-rule="nonzero" stroke-width="3" fill="#ffffff" stroke="#323232"/><text xml:space="preserve" style="fill:#191919;font-family:JetBrains Mono ExtraBold;font-size:12.00pt"><tspan x="8.0" style="text-decoration:underline" y="33.5">order-id</tspan></text></g><g id="shape48" transform="translate(467.000000,430.000000)"><path d="M.0,28.0C.0,12.5,21.5,.0,48.0,.0C74.5,.0,96.0,12.5,96.0,28.0C96.0,43.5,74.5,56.0,48.0,56.0C21.5,56.0,.0,43.5,.0,28.0z" fill-rule="nonzero" stroke-width="3" fill="#ffffff" stroke="#323232"/><text xml:space="preserve" style="fill:#191919;font-family:JetBrains Mono ExtraBold;font-size:12.00pt"><tspan x="8.0" style="text-decoration:underline" y="33.5">order-id</tspan></text></g><g id="shape49" transform="translate(614.500000,19.500000)"><path d="M.0,28.0C.0,12.5,21.5,.0,48.0,.0C74.5,.0,96.0,12.5,96.0,28.0C96.0,43.5,74.5,56.0,48.0,56.0C21.5,56.0,.0,43.5,.0,28.0z" fill-rule="nonzero" stroke-width="3" fill="#ffffff" stroke="#323232"/><text xml:space="preserve" style="fill:#191919;font-family:JetBrains Mono ExtraBold;font-size:12.00pt"><tspan x="13.0" style="text-decoration:underline" y="33.5">user-id</tspan></text></g><g id="shape50" transform="translate(727.500000,92.500000)"><path d="M.0,28.0C.0,12.5,21.5,.0,48.0,.0C74.5,.0,96.0,12.5,96.0,28.0C96.0,43.5,74.5,56.0,48.0,56.0C21.5,56.0,.0,43.5,.0,28.0z" fill-rule="nonzero" stroke-width="3" fill="#ffffff" stroke="#323232"/><text xml:space="preserve" style="fill:#191919;font-family:JetBrains Mono ExtraBold;font-size:12.00pt"><tspan x="13.0" style="text-decoration:underline" y="33.5">item-id</tspan></text></g><g id="shape51" transform="translate(204.000000,370.041176)"><text xml:space="preserve" style="fill:#ff0000;font-family:JetBrains Mono ExtraBold;font-size:16.00pt;font-weight:bold"><tspan x="15.5" y="42.2">Sales</tspan></text></g><g id="shape52" transform="translate(618.000000,370.041176)"><text xml:space="preserve" style="fill:#ff0000;font-family:JetBrains Mono ExtraBold;font-size:16.00pt;font-weight:bold"><tspan x="14.5" y="42.2">Product</tspan></text></g><g id="shape53" transform="translate(141.000000,463.000000)"><path d="M.0,28.0C.0,12.5,21.5,.0,48.0,.0C74.5,.0,96.0,12.5,96.0,28.0C96.0,43.5,74.5,56.0,48.0,56.0C21.5,56.0,.0,43.5,.0,28.0z" fill-rule="nonzero" stroke-width="3" fill="#ffffff" stroke="#323232"/><text xml:space="preserve" style="fill:#191919;font-family:JetBrains Mono ExtraBold;font-size:12.00pt"><tspan x="18.0" y="23.0">order-</tspan><tspan x="28.0" y="44.0">date</tspan></text></g><g id="shape54" transform="translate(75.000000,349.000000)"><path d="M.0,28.0C.0,12.5,21.5,.0,48.0,.0C74.5,.0,96.0,12.5,96.0,28.0C96.0,43.5,74.5,56.0,48.0,56.0C21.5,56.0,.0,43.5,.0,28.0z" fill-rule="nonzero" stroke-width="3" fill="#ffffff" stroke="#323232"/><text xml:space="preserve" style="fill:#191919;font-family:JetBrains Mono ExtraBold;font-size:12.00pt"><tspan x="13.0" style="text-decoration:underline" y="33.5">user-id</tspan></text></g></g></svg>