<?xml version="1.0" encoding="utf-8"?>
<!-- Generator: Adobe Illustrator 16.0.0, SVG Export Plug-In . SVG Version: 6.00 Build 0)  -->
<!DOCTYPE svg PUBLIC "-//W3C//DTD SVG 1.1//EN" "http://www.w3.org/Graphics/SVG/1.1/DTD/svg11.dtd">
<svg version="1.1" xmlns="http://www.w3.org/2000/svg" xmlns:xlink="http://www.w3.org/1999/xlink" x="0px" y="0px" width="286px"
	 height="76.938px" viewBox="0 0 286 76.938" enable-background="new 0 0 286 76.938" xml:space="preserve">
<g id="Layer_1">
	<g>
		<g>
			<g>
				<g>
					<path fill="#009BDE" d="M193.06,0.357h-22.251c-1.521,0-2.816,1.106-3.053,2.609l-8.998,57.053
						c-0.177,1.125,0.692,2.145,1.832,2.145h11.417c1.064,0,1.972-0.775,2.137-1.828l2.552-16.174
						c0.237-1.504,1.532-2.609,3.054-2.609h7.041c14.655,0,23.113-7.094,25.324-21.151c0.995-6.147,0.04-10.979-2.839-14.36
						C206.111,2.323,200.503,0.357,193.06,0.357z M195.627,21.194c-1.216,7.987-7.315,7.987-13.216,7.987h-3.356l2.354-14.912
						c0.143-0.901,0.92-1.565,1.832-1.565h1.539c4.016,0,7.81,0,9.765,2.288C195.716,16.361,196.069,18.39,195.627,21.194z"/>
					<path fill="#002F87" d="M34.364,0.357h-22.25c-1.521,0-2.816,1.106-3.054,2.609L0.062,60.02
						c-0.177,1.125,0.693,2.145,1.833,2.145h10.624c1.521,0,2.816-1.107,3.054-2.611L18,44.162c0.237-1.504,1.532-2.609,3.053-2.609
						h7.041c14.656,0,23.114-7.094,25.325-21.151c0.995-6.147,0.04-10.979-2.838-14.36C47.416,2.323,41.807,0.357,34.364,0.357z
						 M36.931,21.194c-1.216,7.987-7.316,7.987-13.215,7.987h-3.357l2.354-14.912c0.143-0.901,0.919-1.565,1.832-1.565h1.539
						c4.016,0,7.81,0,9.765,2.288C37.02,16.361,37.374,18.39,36.931,21.194z"/>
					<path fill="#002F87" d="M100.866,20.938H90.213c-0.913,0-1.69,0.664-1.833,1.566l-0.468,2.979l-0.745-1.079
						c-2.308-3.35-7.45-4.468-12.585-4.468c-11.77,0-21.825,8.92-23.782,21.431c-1.019,6.24,0.427,12.205,3.966,16.367
						c3.251,3.826,7.891,5.418,13.419,5.418c9.487,0,14.75-6.096,14.75-6.096l-0.476,2.961c-0.179,1.127,0.691,2.146,1.831,2.146
						h9.596c1.521,0,2.815-1.107,3.053-2.609l5.76-36.473C102.876,21.956,102.006,20.938,100.866,20.938z M86.019,41.676
						c-1.029,6.088-5.861,10.174-12.025,10.174c-3.09,0-5.564-0.994-7.154-2.875c-1.576-1.865-2.169-4.523-1.669-7.484
						c0.959-6.033,5.87-10.252,11.939-10.252c3.025,0,5.482,1.004,7.104,2.904C85.844,36.055,86.485,38.73,86.019,41.676z"/>
					<path fill="#009BDE" d="M259.563,20.938h-10.653c-0.913,0-1.69,0.664-1.832,1.566l-0.469,2.979l-0.745-1.079
						c-2.308-3.35-7.45-4.468-12.585-4.468c-11.771,0-21.826,8.92-23.782,21.431c-1.019,6.24,0.427,12.205,3.966,16.367
						c3.251,3.826,7.891,5.418,13.419,5.418c9.487,0,14.75-6.096,14.75-6.096l-0.476,2.961c-0.179,1.127,0.691,2.146,1.832,2.146
						h9.595c1.521,0,2.815-1.107,3.053-2.609l5.76-36.473C261.573,21.956,260.702,20.938,259.563,20.938z M244.715,41.676
						c-1.029,6.088-5.861,10.174-12.025,10.174c-3.091,0-5.564-0.994-7.155-2.875c-1.575-1.865-2.169-4.523-1.669-7.484
						c0.96-6.033,5.869-10.252,11.939-10.252c3.025,0,5.482,1.004,7.104,2.904C244.54,36.055,245.182,38.73,244.715,41.676z"/>
					<path fill="#002F87" d="M157.612,20.938h-10.709c-1.024,0-1.982,0.509-2.558,1.355l-14.772,21.757l-6.261-20.906
						c-0.392-1.309-1.596-2.206-2.961-2.206h-10.527c-1.271,0-2.165,1.251-1.756,2.454l11.792,34.611l-11.091,15.65
						c-0.871,1.229,0.008,2.926,1.514,2.926h10.698c1.014,0,1.963-0.496,2.541-1.33l35.614-51.399
						C159.988,22.62,159.108,20.938,157.612,20.938z"/>
					<path fill="#009BDE" d="M272.121,1.924l-9.133,58.096c-0.177,1.127,0.693,2.145,1.832,2.145h9.185
						c1.521,0,2.817-1.107,3.054-2.609l9.004-57.054c0.178-1.126-0.691-2.144-1.832-2.144h-10.277
						C273.04,0.357,272.263,1.021,272.121,1.924z"/>
				</g>
			</g>
		</g>
	</g>
</g>
<g id="Layer_2">
</g>
</svg>
